<svg xmlns="http://www.w3.org/2000/svg" viewbox="0 0 9 13" width="9" height="13"><defs></defs><g transform="matrix(1, 0, 0, 1, -30.824726555934454, -1.5374070324831195)">
<g transform="matrix(1, 0, 0, 1, 0, 0)">
	<g transform="matrix(1, 0, 0, 1, 0, 0)">
		<path class="vector-data" d="M39.949727,15.306599C39.949727,15.306599 39.949727,13.806599 39.949727,13.806599 C39.949727,13.254314 39.390083,12.806599 38.699727,12.806599 C38.699727,12.806599 38.074727,12.806599 38.074727,12.806599 C38.074727,12.806599 32.949727,12.806599 32.949727,12.806599 C32.949727,12.806599 32.074727,12.806599 32.074727,12.806599 C31.384371,12.806599 30.824727,13.254314 30.824727,13.806599 C30.824727,13.806599 30.824727,15.306599 30.824727,15.306599 C30.824727,15.306599 39.949727,15.306599 39.949727,15.306599 L 39.949727,15.306599 ZM39.949727,15.306599C39.949727,15.306599 39.949727,13.806599 39.949727,13.806599 C39.949727,13.254314 39.390083,12.806599 38.699727,12.806599 C38.699727,12.806599 38.074727,12.806599 38.074727,12.806599 C38.074727,12.806599 32.949727,12.806599 32.949727,12.806599 C32.949727,12.806599 32.074727,12.806599 32.074727,12.806599 C31.384371,12.806599 30.824727,13.254314 30.824727,13.806599 C30.824727,13.806599 30.824727,15.306599 30.824727,15.306599 C30.824727,15.306599 39.949727,15.306599 39.949727,15.306599 L 39.949727,15.306599 Z" fill="#8EEF97" stroke="#000000" stroke-width="0" stroke-dasharray="none" stroke-dashoffset="0" stroke-linecap="butt" stroke-linejoin="miter" stroke-miterlimit="4" />
		<path class="vector-data" d="M37.281907,13.373687C37.281907,13.373687 37.282013,9.065555 37.282013,9.065555 C38.900508,8.200962 39.723164,6.346031 39.277548,4.566010 C38.831931,2.785989 37.232342,1.537452 35.397390,1.537407 C33.562439,1.537362 31.962788,2.785820 31.517083,4.565819 C31.071379,6.345818 31.893945,8.200789 33.512398,9.065462 C33.512398,9.065462 33.475115,13.373687 33.475115,13.373687 C33.475115,13.373687 37.281907,13.373687 37.281907,13.373687 L 37.281907,13.373687 ZM37.281907,13.373687C37.281907,13.373687 37.282013,9.065555 37.282013,9.065555 C38.900508,8.200962 39.723164,6.346031 39.277548,4.566010 C38.831931,2.785989 37.232342,1.537452 35.397390,1.537407 C33.562439,1.537362 31.962788,2.785820 31.517083,4.565819 C31.071379,6.345818 31.893945,8.200789 33.512398,9.065462 C33.512398,9.065462 33.475115,13.373687 33.475115,13.373687 C33.475115,13.373687 37.281907,13.373687 37.281907,13.373687 L 37.281907,13.373687 Z" fill="#8EEF97" stroke="#000000" stroke-width="0" stroke-dasharray="none" stroke-dashoffset="0" stroke-linecap="butt" stroke-linejoin="miter" stroke-miterlimit="4" />
	</g>
</g></g></svg>