<svg xmlns="http://www.w3.org/2000/svg" viewbox="0 0 10 14" width="10" height="14"><defs></defs><g transform="matrix(1, 0, 0, 1, -2.9999999999999996, -0.9999999999999999)">
<g transform="matrix(1, 0, 0, 1, 0, 0)">
	<g transform="matrix(1, 0, 0, 1, 0, 0)">
		<path class="vector-data" d="M13.000000,14.670934C13.000000,14.670934 13.734492,14.670934 13.734492,14.670934 C13.734492,14.670934 13.734492,15.412285 13.734492,15.412285 C13.734492,15.412285 13.000000,15.412285 13.000000,15.412285 C13.000000,15.412285 13.000000,14.670934 13.000000,14.670934 L 13.000000,14.670934 ZM13.000000,14.670934C13.000000,14.670934 13.734492,14.670934 13.734492,14.670934 C13.734492,14.670934 13.734492,15.412285 13.734492,15.412285 C13.734492,15.412285 13.000000,15.412285 13.000000,15.412285 C13.000000,15.412285 13.000000,14.670934 13.000000,14.670934 L 13.000000,14.670934 Z" fill="#FFFFFF" stroke="#000000" stroke-opacity="0.000" stroke-width="0" stroke-dasharray="none" stroke-dashoffset="0" stroke-linecap="butt" stroke-linejoin="miter" stroke-miterlimit="4" />
	</g>
	<g transform="matrix(1, 0, 0, 1, 0, 0)">
		<path class="vector-data" d="M3.000000,2.000000C3.000000,1.447715 3.447715,1.000000 4.000000,1.000000 C4.000000,1.000000 12.000000,1.000000 12.000000,1.000000 C12.552285,1.000000 13.000000,1.447715 13.000000,2.000000 C13.000000,2.000000 13.000000,14.000000 13.000000,14.000000 C13.000000,14.552285 12.552285,15.000000 12.000000,15.000000 C12.000000,15.000000 4.000000,15.000000 4.000000,15.000000 C3.447715,15.000000 3.000000,14.552285 3.000000,14.000000 C3.000000,14.000000 3.000000,2.000000 3.000000,2.000000 L 3.000000,2.000000 ZM8.000000,13.125000C7.585786,13.125000 7.250000,13.460787 7.250000,13.875000 C7.250000,14.289213 7.585786,14.625000 8.000000,14.625000 C8.414213,14.625000 8.750000,14.289213 8.750000,13.875000 C8.750000,13.460787 8.414213,13.125000 8.000000,13.125000 C8.000000,13.125000 8.000000,13.125000 8.000000,13.125000 L 8.000000,13.125000 ZM3.000000,2.000000C3.000000,1.447715 3.447715,1.000000 4.000000,1.000000 C4.000000,1.000000 12.000000,1.000000 12.000000,1.000000 C12.552285,1.000000 13.000000,1.447715 13.000000,2.000000 C13.000000,2.000000 13.000000,14.000000 13.000000,14.000000 C13.000000,14.552285 12.552285,15.000000 12.000000,15.000000 C12.000000,15.000000 4.000000,15.000000 4.000000,15.000000 C3.447715,15.000000 3.000000,14.552285 3.000000,14.000000 C3.000000,14.000000 3.000000,2.000000 3.000000,2.000000 L 3.000000,2.000000 ZM4.000000,2.000000C4.000000,2.000000 4.000000,12.750000 4.000000,12.750000 C4.000000,12.750000 12.000000,12.750000 12.000000,12.750000 C12.000000,12.750000 12.000000,2.000000 12.000000,2.000000 M8.000000,13.125000C7.585786,13.125000 7.250000,13.460787 7.250000,13.875000 C7.250000,14.289213 7.585786,14.625000 8.000000,14.625000 C8.414213,14.625000 8.750000,14.289213 8.750000,13.875000 C8.750000,13.460787 8.414213,13.125000 8.000000,13.125000 C8.000000,13.125000 8.000000,13.125000 8.000000,13.125000 L 8.000000,13.125000 Z" fill="#E0E0E0" stroke="#000000" stroke-width="0" stroke-dasharray="none" stroke-dashoffset="0" stroke-linecap="butt" stroke-linejoin="miter" stroke-miterlimit="4" />
	</g>
	<g transform="matrix(1, 0, 0, 1, 0, 0)">
		<path class="vector-data" d="M11.183588,6.819500C10.898588,6.680000 10.554338,6.798500 10.414838,7.084250 C10.414838,7.084250 9.727838,8.494250 9.727838,8.494250 C9.727838,8.494250 10.243838,5.648000 10.243838,5.648000 C10.300838,5.337500 10.093088,5.038250 9.781088,4.980500 C9.468338,4.924250 9.170588,5.130500 9.112838,5.442500 C9.112838,5.442500 8.681588,7.817000 8.681588,7.817000 C8.681588,7.817000 8.613338,7.336250 8.613338,7.336250 C8.613338,7.336250 8.613338,4.434500 8.613338,4.434500 C8.613338,4.115000 8.356088,3.858500 8.038088,3.858500 C7.720088,3.858500 7.463588,4.115000 7.463588,4.434500 C7.463588,4.434500 7.463588,7.336250 7.463588,7.336250 C7.463588,7.336250 7.463588,8.195750 7.463588,8.195750 C7.463588,8.195750 6.964088,5.442500 6.964088,5.442500 C6.907088,5.130500 6.607838,4.922750 6.295838,4.979750 C5.983088,5.036750 5.776088,5.336000 5.833088,5.647250 C5.833088,5.647250 6.391838,8.730500 6.391838,8.730500 C6.391838,8.730500 5.451338,8.054000 5.451338,8.054000 C5.173838,7.796000 4.739588,7.812500 4.481588,8.089250 C4.223588,8.367500 4.239338,8.801000 4.517588,9.059000 C4.517588,9.059000 6.888338,11.358500 6.888338,11.358500 C6.888338,11.358500 9.187088,11.358500 9.187088,11.358500 C9.600338,11.358500 10.088588,10.373000 10.088588,10.373000 C10.088588,10.373000 11.448338,7.589000 11.448338,7.589000 C11.587088,7.301750 11.469338,6.958250 11.183588,6.819500 C11.183588,6.819500 11.183588,6.819500 11.183588,6.819500 L 11.183588,6.819500 ZM11.183588,6.819500C10.898588,6.680000 10.554338,6.798500 10.414838,7.084250 C10.414838,7.084250 9.727838,8.494250 9.727838,8.494250 C9.727838,8.494250 10.243838,5.648000 10.243838,5.648000 C10.300838,5.337500 10.093088,5.038250 9.781088,4.980500 C9.468338,4.924250 9.170588,5.130500 9.112838,5.442500 C9.112838,5.442500 8.681588,7.817000 8.681588,7.817000 C8.681588,7.817000 8.613338,7.336250 8.613338,7.336250 C8.613338,7.336250 8.613338,4.434500 8.613338,4.434500 C8.613338,4.115000 8.356088,3.858500 8.038088,3.858500 C7.720088,3.858500 7.463588,4.115000 7.463588,4.434500 C7.463588,4.434500 7.463588,7.336250 7.463588,7.336250 C7.463588,7.336250 7.463588,8.195750 7.463588,8.195750 C7.463588,8.195750 6.964088,5.442500 6.964088,5.442500 C6.907088,5.130500 6.607838,4.922750 6.295838,4.979750 C5.983088,5.036750 5.776088,5.336000 5.833088,5.647250 C5.833088,5.647250 6.391838,8.730500 6.391838,8.730500 C6.391838,8.730500 5.451338,8.054000 5.451338,8.054000 C5.173838,7.796000 4.739588,7.812500 4.481588,8.089250 C4.223588,8.367500 4.239338,8.801000 4.517588,9.059000 C4.517588,9.059000 6.888338,11.358500 6.888338,11.358500 C6.888338,11.358500 9.187088,11.358500 9.187088,11.358500 C9.600338,11.358500 10.088588,10.373000 10.088588,10.373000 C10.088588,10.373000 11.448338,7.589000 11.448338,7.589000 C11.587088,7.301750 11.469338,6.958250 11.183588,6.819500 C11.183588,6.819500 11.183588,6.819500 11.183588,6.819500 L 11.183588,6.819500 Z" fill="#8EEF97" stroke="#000000" stroke-width="0" stroke-dasharray="none" stroke-dashoffset="0" stroke-linecap="butt" stroke-linejoin="miter" stroke-miterlimit="4" />
	</g>
</g></g></svg>