<svg xmlns="http://www.w3.org/2000/svg" viewbox="0 0 9 13" width="9" height="13"><defs></defs><g transform="matrix(1, 0, 0, 1, -30.824726555934454, -1.5374070324831195)">
<g transform="matrix(1, 0, 0, 1, 0, 0)">
	<g transform="matrix(1, 0, 0, 1, 0, 0)">
		<path class="vector-data" d="M39.949727,15.306599C39.949727,15.306599 39.949727,13.806599 39.949727,13.806599 C39.949727,13.254314 39.390083,12.806599 38.699727,12.806599 C38.699727,12.806599 38.074727,12.806599 38.074727,12.806599 C38.074727,12.806599 32.949727,12.806599 32.949727,12.806599 C32.949727,12.806599 32.074727,12.806599 32.074727,12.806599 C31.384371,12.806599 30.824727,13.254314 30.824727,13.806599 C30.824727,13.806599 30.824727,15.306599 30.824727,15.306599 C30.824727,15.306599 39.949727,15.306599 39.949727,15.306599 L 39.949727,15.306599 ZM39.949727,15.306599C39.949727,15.306599 39.949727,13.806599 39.949727,13.806599 C39.949727,13.254314 39.390083,12.806599 38.699727,12.806599 C38.699727,12.806599 38.074727,12.806599 38.074727,12.806599 C38.074727,12.806599 32.949727,12.806599 32.949727,12.806599 C32.949727,12.806599 32.074727,12.806599 32.074727,12.806599 C31.384371,12.806599 30.824727,13.254314 30.824727,13.806599 C30.824727,13.806599 30.824727,15.306599 30.824727,15.306599 C30.824727,15.306599 39.949727,15.306599 39.949727,15.306599 L 39.949727,15.306599 Z" fill="#8EEF97" stroke="#000000" stroke-width="0" stroke-dasharray="none" stroke-dashoffset="0" stroke-linecap="butt" stroke-linejoin="miter" stroke-miterlimit="4" />
		<path class="vector-data" d="M37.281907,13.373687C37.281907,13.373687 37.282013,9.065555 37.282013,9.065555 C38.900508,8.200962 39.723164,6.346031 39.277548,4.566010 C38.831931,2.785989 37.232342,1.537452 35.397390,1.537407 C33.562439,1.537362 31.962788,2.785820 31.517083,4.565819 C31.071379,6.345818 31.893945,8.200789 33.512398,9.065462 C33.512398,9.065462 33.475115,13.373687 33.475115,13.373687 C33.475115,13.373687 37.281907,13.373687 37.281907,13.373687 L 37.281907,13.373687 ZM37.281907,13.373687C37.281907,13.373687 37.282013,9.065555 37.282013,9.065555 C38.900508,8.200962 39.723164,6.346031 39.277548,4.566010 C38.831931,2.785989 37.232342,1.537452 35.397390,1.537407 C33.562439,1.537362 31.962788,2.785820 31.517083,4.565819 C31.071379,6.345818 31.893945,8.200789 33.512398,9.065462 C33.512398,9.065462 33.475115,13.373687 33.475115,13.373687 C33.475115,13.373687 37.281907,13.373687 37.281907,13.373687 L 37.281907,13.373687 Z" fill="#8EEF97" stroke="#000000" stroke-width="0" stroke-dasharray="none" stroke-dashoffset="0" stroke-linecap="butt" stroke-linejoin="miter" stroke-miterlimit="4" />
	</g>
	<g transform="matrix(1, 0, 0, 1, 0, 0)">
		<g transform="matrix(1, 0, 0, 1, 0, 0)">
			<path class="vector-data" d="M62.564622,15.881561C62.564622,15.881561 62.564622,14.381561 62.564622,14.381561 C62.564622,13.829275 62.004979,13.381561 61.314622,13.381561 C61.314622,13.381561 60.689622,13.381561 60.689622,13.381561 C60.689622,13.381561 55.564622,13.381561 55.564622,13.381561 C55.564622,13.381561 54.689622,13.381561 54.689622,13.381561 C53.999266,13.381561 53.439622,13.829275 53.439622,14.381561 C53.439622,14.381561 53.439622,15.881561 53.439622,15.881561 C53.439622,15.881561 62.564622,15.881561 62.564622,15.881561 L 62.564622,15.881561 ZM62.564622,15.881561C62.564622,15.881561 62.564622,14.381561 62.564622,14.381561 C62.564622,13.829275 62.004979,13.381561 61.314622,13.381561 C61.314622,13.381561 60.689622,13.381561 60.689622,13.381561 C60.689622,13.381561 55.564622,13.381561 55.564622,13.381561 C55.564622,13.381561 54.689622,13.381561 54.689622,13.381561 C53.999266,13.381561 53.439622,13.829275 53.439622,14.381561 C53.439622,14.381561 53.439622,15.881561 53.439622,15.881561 C53.439622,15.881561 62.564622,15.881561 62.564622,15.881561 L 62.564622,15.881561 Z" fill="#E1E1E1" fill-opacity="0.475" stroke="#000000" stroke-width="0" stroke-dasharray="none" stroke-dashoffset="0" stroke-linecap="butt" stroke-linejoin="miter" stroke-miterlimit="4" />
			<path class="vector-data" d="M59.896802,13.948648C59.896802,13.948648 59.896908,9.640516 59.896908,9.640516 C61.515403,8.775924 62.338060,6.920993 61.892444,5.140972 C61.446827,3.360951 59.847238,2.112413 58.012285,2.112369 C56.177334,2.112323 54.577683,3.360782 54.131979,5.140781 C53.686274,6.920780 54.508840,8.775751 56.127293,9.640424 C56.127293,9.640424 56.090010,13.948648 56.090010,13.948648 C56.090010,13.948648 59.896802,13.948648 59.896802,13.948648 L 59.896802,13.948648 ZM59.896802,13.948648C59.896802,13.948648 59.896908,9.640516 59.896908,9.640516 C61.515403,8.775924 62.338060,6.920993 61.892444,5.140972 C61.446827,3.360951 59.847238,2.112413 58.012285,2.112369 C56.177334,2.112323 54.577683,3.360782 54.131979,5.140781 C53.686274,6.920780 54.508840,8.775751 56.127293,9.640424 C56.127293,9.640424 56.090010,13.948648 56.090010,13.948648 C56.090010,13.948648 59.896802,13.948648 59.896802,13.948648 L 59.896802,13.948648 Z" fill="#E1E1E1" fill-opacity="0.475" stroke="#000000" stroke-width="0" stroke-dasharray="none" stroke-dashoffset="0" stroke-linecap="butt" stroke-linejoin="miter" stroke-miterlimit="4" />
		</g>
		<path class="vector-data" d="M63.943008,14.568942C63.943008,14.568942 63.943008,13.068942 63.943008,13.068942 C63.943008,12.516656 63.383364,12.068942 62.693008,12.068942 C62.693008,12.068942 62.068008,12.068942 62.068008,12.068942 C62.068008,12.068942 56.943008,12.068942 56.943008,12.068942 C56.943008,12.068942 56.068008,12.068942 56.068008,12.068942 C55.377652,12.068942 54.818008,12.516656 54.818008,13.068942 C54.818008,13.068942 54.818008,14.568942 54.818008,14.568942 C54.818008,14.568942 63.943008,14.568942 63.943008,14.568942 L 63.943008,14.568942 ZM63.943008,14.568942C63.943008,14.568942 63.943008,13.068942 63.943008,13.068942 C63.943008,12.516656 63.383364,12.068942 62.693008,12.068942 C62.693008,12.068942 62.068008,12.068942 62.068008,12.068942 C62.068008,12.068942 56.943008,12.068942 56.943008,12.068942 C56.943008,12.068942 56.068008,12.068942 56.068008,12.068942 C55.377652,12.068942 54.818008,12.516656 54.818008,13.068942 C54.818008,13.068942 54.818008,14.568942 54.818008,14.568942 C54.818008,14.568942 63.943008,14.568942 63.943008,14.568942 L 63.943008,14.568942 Z" fill="#8EEF97" stroke="#000000" stroke-width="0" stroke-dasharray="none" stroke-dashoffset="0" stroke-linecap="butt" stroke-linejoin="miter" stroke-miterlimit="4" />
		<path class="vector-data" d="M61.275188,12.636029C61.275188,12.636029 61.275294,8.327897 61.275294,8.327897 C62.893789,7.463305 63.716445,5.608374 63.270829,3.828353 C62.825212,2.048332 61.225623,0.799794 59.390671,0.799750 C57.555720,0.799704 55.956069,2.048163 55.510364,3.828162 C55.064660,5.608161 55.887226,7.463132 57.505679,8.327805 C57.505679,8.327805 57.468396,12.636029 57.468396,12.636029 C57.468396,12.636029 61.275188,12.636029 61.275188,12.636029 L 61.275188,12.636029 ZM61.275188,12.636029C61.275188,12.636029 61.275294,8.327897 61.275294,8.327897 C62.893789,7.463305 63.716445,5.608374 63.270829,3.828353 C62.825212,2.048332 61.225623,0.799794 59.390671,0.799750 C57.555720,0.799704 55.956069,2.048163 55.510364,3.828162 C55.064660,5.608161 55.887226,7.463132 57.505679,8.327805 C57.505679,8.327805 57.468396,12.636029 57.468396,12.636029 C57.468396,12.636029 61.275188,12.636029 61.275188,12.636029 L 61.275188,12.636029 Z" fill="#8EEF97" stroke="#000000" stroke-width="0" stroke-dasharray="none" stroke-dashoffset="0" stroke-linecap="butt" stroke-linejoin="miter" stroke-miterlimit="4" />
	</g>
</g></g></svg>